# Blender v2.90.0 OBJ File: 'objects.blend'
# www.blender.org
mtllib blue_pylon.mtl
o Pylon_Cone.001
v -0.663255 -0.223102 0.043115
v -0.675588 -0.285102 0.043115
v -0.710708 -0.337662 0.043115
v -0.763268 -0.372782 0.043115
v -0.825268 -0.385115 0.043115
v -0.779733 -0.223102 0.695485
v -0.887268 -0.372782 0.043115
v -0.939828 -0.337662 0.043115
v -0.974948 -0.285102 0.043115
v -0.987281 -0.223102 0.043115
v -0.974948 -0.161102 0.043115
v -0.939828 -0.108542 0.043115
v -0.887268 -0.073422 0.043115
v -0.825268 -0.061089 0.043115
v -0.763268 -0.073422 0.043115
v -0.710708 -0.108542 0.043115
v -0.675588 -0.161102 0.043115
v -0.783199 -0.205677 0.695485
v -0.793070 -0.190904 0.695485
v -0.807843 -0.181034 0.695485
v -0.825268 -0.177567 0.695485
v -0.842693 -0.181034 0.695485
v -0.857466 -0.190904 0.695485
v -0.867336 -0.205677 0.695485
v -0.870803 -0.223102 0.695485
v -0.867336 -0.240527 0.695485
v -0.857466 -0.255300 0.695485
v -0.842693 -0.265170 0.695485
v -0.825268 -0.268637 0.695485
v -0.807843 -0.265170 0.695485
v -0.793070 -0.255300 0.695485
v -0.783199 -0.240527 0.695485
v -0.754988 -0.392773 0.043115
v -0.695408 -0.352962 0.043115
v -0.655597 -0.293382 0.043115
v -0.641618 -0.223102 0.043115
v -0.825268 -0.406752 0.043115
v -0.895548 -0.392773 0.043115
v -0.955128 -0.352962 0.043115
v -0.994939 -0.293382 0.043115
v -1.008918 -0.223102 0.043115
v -0.994939 -0.152822 0.043115
v -0.955128 -0.093242 0.043115
v -0.895548 -0.053431 0.043115
v -0.825268 -0.039452 0.043115
v -0.754988 -0.053431 0.043115
v -0.695407 -0.093242 0.043115
v -0.655597 -0.152822 0.043115
v -0.752097 -0.399752 0.021364
v -0.690066 -0.358304 0.021364
v -0.648617 -0.296273 0.021364
v -0.898439 -0.399752 0.021364
v -0.960470 -0.087900 0.021364
v -0.690065 -0.087900 0.021364
v -0.648617 -0.149931 0.021364
v -0.625876 -0.023710 0.002927
v -1.024660 -0.023710 0.002927
v -1.024660 -0.422494 0.002927
v -0.625876 -0.422494 0.002927
v -0.634063 -0.223102 0.021364
v -0.825268 -0.414307 0.021364
v -0.960470 -0.358304 0.021364
v -1.001919 -0.296273 0.021364
v -1.016473 -0.223102 0.021364
v -1.001919 -0.149931 0.021364
v -0.898439 -0.046451 0.021364
v -0.825268 -0.031897 0.021364
v -0.752097 -0.046451 0.021364
v -0.627049 -0.421321 0.021364
v -1.023487 -0.421321 0.021364
v -1.023487 -0.024883 0.021364
v -0.627049 -0.024883 0.021364
v -0.784475 -0.223102 0.695485
v -0.787580 -0.207491 0.695485
v -0.796423 -0.194257 0.695485
v -0.809657 -0.185414 0.695485
v -0.825268 -0.182309 0.695485
v -0.840879 -0.185414 0.695485
v -0.854113 -0.194257 0.695485
v -0.862956 -0.207491 0.695485
v -0.866061 -0.223102 0.695485
v -0.862956 -0.238713 0.695485
v -0.854113 -0.251947 0.695485
v -0.840879 -0.260790 0.695485
v -0.825268 -0.263895 0.695485
v -0.809657 -0.260790 0.695485
v -0.796423 -0.251947 0.695485
v -0.787580 -0.238713 0.695485
v -0.673987 -0.223102 -0.000954
v -0.685503 -0.165209 -0.000954
v -0.718296 -0.116130 -0.000954
v -0.767375 -0.083337 -0.000954
v -0.825268 -0.071821 -0.000954
v -0.883161 -0.083337 -0.000954
v -0.932240 -0.116130 -0.000954
v -0.965033 -0.165209 -0.000954
v -0.976549 -0.223102 -0.000954
v -0.965033 -0.280995 -0.000954
v -0.932240 -0.330074 -0.000954
v -0.883161 -0.362867 -0.000954
v -0.825268 -0.374383 -0.000954
v -0.767375 -0.362867 -0.000954
v -0.718296 -0.330074 -0.000954
v -0.685503 -0.280995 -0.000954
vt 0.331537 0.000058
vt 0.212379 0.999942
vt 0.119215 0.999942
vt 0.000058 0.000058
vt 0.331537 0.000058
vt 0.212379 0.999942
vt 0.119215 0.999942
vt 0.000058 0.000058
vt 0.331537 0.000058
vt 0.212379 0.999942
vt 0.119215 0.999942
vt 0.000058 0.000058
vt 0.331537 0.000058
vt 0.212379 0.999942
vt 0.119215 0.999942
vt 0.000058 0.000058
vt 0.331537 0.000058
vt 0.212379 0.999942
vt 0.119215 0.999942
vt 0.000058 0.000058
vt 0.331537 0.000058
vt 0.212380 0.999942
vt 0.119215 0.999942
vt 0.000058 0.000058
vt 0.331537 0.000058
vt 0.212379 0.999942
vt 0.119215 0.999942
vt 0.000058 0.000058
vt 0.331537 0.000058
vt 0.212379 0.999942
vt 0.119215 0.999942
vt 0.000058 0.000058
vt 0.331537 0.000058
vt 0.212379 0.999942
vt 0.119215 0.999942
vt 0.000058 0.000058
vt 0.331537 0.000058
vt 0.212379 0.999942
vt 0.119215 0.999942
vt 0.000058 0.000058
vt 0.331536 0.000058
vt 0.212379 0.999942
vt 0.119214 0.999942
vt 0.000058 0.000058
vt 0.331537 0.000058
vt 0.212379 0.999942
vt 0.119215 0.999942
vt 0.000058 0.000058
vt 0.331537 0.000058
vt 0.212379 0.999942
vt 0.119215 0.999942
vt 0.000058 0.000058
vt 0.331536 0.000058
vt 0.212379 0.999942
vt 0.119215 0.999942
vt 0.000058 0.000058
vt 0.331537 0.000058
vt 0.212379 0.999942
vt 0.119215 0.999942
vt 0.000058 0.000058
vt 0.331537 0.000058
vt 0.212379 0.999942
vt 0.119215 0.999942
vt 0.000058 0.000058
vt 0.000000 0.000000
vt 0.000000 0.000000
vt 0.000000 0.000000
vt 0.000000 0.000000
vt 0.000000 0.000000
vt 0.000000 0.000000
vt 0.000000 0.000000
vt 0.000000 0.000000
vt 0.000000 0.000000
vt 0.000000 0.000000
vt 0.000000 0.000000
vt 0.000000 0.000000
vt 0.000000 0.000000
vt 0.000000 0.000000
vt 0.000000 0.000000
vt 0.000000 0.000000
vt 0.000000 0.000000
vt 0.000000 0.000000
vt 0.000000 0.000000
vt 0.000000 0.000000
vt 0.000000 0.000000
vt 0.000000 0.000000
vt 0.000000 0.000000
vt 0.000000 0.000000
vt 0.000000 0.000000
vt 0.000000 0.000000
vt 0.000000 0.000000
vt 0.000000 0.000000
vt 0.000000 0.000000
vt 0.000000 0.000000
vt 0.000000 0.000000
vt 0.000000 0.000000
vt 0.000000 0.000000
vt 0.000000 0.000000
vt 0.000000 0.000000
vt 0.000000 0.000000
vt 0.000000 0.000000
vt 0.000000 0.000000
vt 0.000000 0.000000
vt 0.000000 0.000000
vt 0.000000 0.000000
vt 0.000000 0.000000
vt 0.000000 0.000000
vt 0.000000 0.000000
vt 0.000000 0.000000
vt 0.000000 0.000000
vt 0.000000 0.000000
vt 0.000000 0.000000
vt 0.000000 0.000000
vt 0.000000 0.000000
vt 0.000000 0.000000
vt 0.000000 0.000000
vt 0.000000 0.000000
vt 0.000000 0.000000
vt 0.000000 0.000000
vt 0.000000 0.000000
vt 0.000000 0.000000
vt 0.000000 0.000000
vt 0.000000 0.000000
vt 0.000000 0.000000
vt 0.000000 0.000000
vt 0.000000 0.000000
vt 0.000000 0.000000
vt 0.000000 0.000000
vt 0.000000 0.000000
vt 0.000000 0.000000
vt 0.000000 0.000000
vt 0.000000 0.000000
vt 0.000000 0.000000
vt 0.000000 0.000000
vt 0.000000 0.000000
vt 0.000000 0.000000
vt 0.000000 0.000000
vt 0.000000 0.000000
vt 0.000000 0.000000
vt 0.000000 0.000000
vt 0.000000 0.000000
vt 0.000000 0.000000
vt 0.000000 0.000000
vt 0.000000 0.000000
vt 0.000000 0.000000
vt 0.000000 0.000000
vt 0.000000 0.000000
vt 0.000000 0.000000
vt 0.000000 0.000000
vt 0.000000 0.000000
vt 0.000000 0.000000
vt 0.000000 0.000000
vt 0.110174 0.999945
vt 0.000055 0.000055
vt 0.301607 0.000055
vt 0.191488 0.999945
vt 0.110175 0.999945
vt 0.000055 0.000055
vt 0.301607 0.000055
vt 0.191489 0.999945
vt 0.110175 0.999945
vt 0.000055 0.000055
vt 0.301607 0.000055
vt 0.191488 0.999945
vt 0.110173 0.999945
vt 0.000055 0.000055
vt 0.301607 0.000055
vt 0.191488 0.999945
vt 0.110174 0.999945
vt 0.000055 0.000055
vt 0.301607 0.000055
vt 0.191488 0.999945
vt 0.110174 0.999945
vt 0.000055 0.000055
vt 0.301607 0.000055
vt 0.191488 0.999945
vt 0.110175 0.999945
vt 0.000055 0.000055
vt 0.301607 0.000055
vt 0.191488 0.999945
vt 0.110173 0.999945
vt 0.000055 0.000055
vt 0.301607 0.000055
vt 0.191488 0.999945
vt 0.110176 0.999945
vt 0.000055 0.000055
vt 0.301607 0.000055
vt 0.191488 0.999945
vt 0.110174 0.999945
vt 0.000055 0.000055
vt 0.301607 0.000055
vt 0.191488 0.999945
vt 0.110175 0.999945
vt 0.000055 0.000055
vt 0.301607 0.000055
vt 0.191488 0.999945
vt 0.110173 0.999945
vt 0.000055 0.000055
vt 0.301607 0.000055
vt 0.191488 0.999945
vt 0.110175 0.999945
vt 0.000055 0.000055
vt 0.301607 0.000055
vt 0.191488 0.999945
vt 0.110175 0.999945
vt 0.000055 0.000055
vt 0.301607 0.000055
vt 0.191488 0.999945
vt 0.110173 0.999945
vt 0.000055 0.000055
vt 0.301607 0.000055
vt 0.191488 0.999945
vt 0.110174 0.999945
vt 0.000055 0.000055
vt 0.301607 0.000055
vt 0.191488 0.999945
vt 0.000000 0.000000
vt 0.000000 0.000000
vt 0.000000 0.000000
vt 0.000000 0.000000
vt 0.000000 0.000000
vt 0.000000 0.000000
vt 0.000000 0.000000
vt 0.000000 0.000000
vt 0.000000 0.000000
vt 0.000000 0.000000
vt 0.000000 0.000000
vt 0.000000 0.000000
vt 0.000000 0.000000
vt 0.000000 0.000000
vt 0.000000 0.000000
vt 0.000000 0.000000
vn -0.8190 0.5472 0.1725
vn 0.5472 0.8190 0.1725
vn -0.8190 -0.5472 0.1725
vn -0.9661 0.1922 0.1725
vn 0.1922 0.9661 0.1725
vn 0.1922 -0.9661 0.1725
vn -0.5472 0.8190 0.1725
vn 0.9661 -0.1922 0.1725
vn 0.8190 0.5472 0.1725
vn -0.9661 -0.1922 0.1725
vn 0.9661 0.1922 0.1725
vn -0.1922 0.9661 0.1725
vn -0.1922 -0.9661 0.1725
vn 0.8190 -0.5472 0.1725
vn -0.5472 -0.8190 0.1725
vn 0.5472 -0.8190 0.1725
vn -0.0000 0.0000 1.0000
vn -0.1847 0.9284 0.3225
vn -0.1847 -0.9284 0.3225
vn 0.1847 0.9284 0.3225
vn -0.5259 -0.7871 0.3225
vn 0.5259 0.7871 0.3225
vn -0.7871 -0.5259 0.3225
vn 0.7871 0.5259 0.3225
vn -0.9284 -0.1847 0.3225
vn 0.1847 -0.9284 0.3225
vn 0.9284 0.1847 0.3225
vn -0.9284 0.1847 0.3225
vn 0.5259 -0.7871 0.3225
vn -0.7871 0.5259 0.3225
vn 0.7871 -0.5259 0.3225
vn -0.5259 0.7871 0.3225
vn 0.9284 -0.1847 0.3225
vn 0.0000 0.9980 0.0635
vn -0.9980 0.0000 0.0635
vn 0.0000 -0.9980 0.0635
vn 0.9980 -0.0000 0.0635
vn 0.9691 0.1928 -0.1537
vn -0.8216 -0.5490 -0.1537
vn 0.8216 0.5490 -0.1537
vn -0.5490 -0.8216 -0.1537
vn 0.5490 0.8216 -0.1537
vn -0.1928 -0.9691 -0.1537
vn 0.1928 0.9691 -0.1537
vn 0.1928 -0.9691 -0.1537
vn -0.1928 0.9691 -0.1537
vn 0.5490 -0.8216 -0.1537
vn -0.5490 0.8216 -0.1537
vn 0.8216 -0.5490 -0.1537
vn -0.8216 0.5490 -0.1537
vn 0.9691 -0.1928 -0.1537
vn -0.9691 -0.1928 -0.1537
vn -0.9691 0.1928 -0.1537
vn -0.0168 -0.0252 -0.9995
vn -0.0252 -0.0168 -0.9995
vn -0.0088 -0.0442 -0.9990
vn -0.0442 -0.0088 -0.9990
vn 0.0088 -0.0442 -0.9990
vn 0.0168 -0.0252 -0.9995
vn 0.0252 -0.0168 -0.9995
vn 0.0442 -0.0088 -0.9990
vn 0.0442 0.0088 -0.9990
vn 0.0252 0.0168 -0.9995
vn 0.0168 0.0252 -0.9995
vn 0.0088 0.0442 -0.9990
vn -0.0088 0.0442 -0.9990
vn -0.0168 0.0252 -0.9995
vn -0.0252 0.0168 -0.9995
vn -0.0442 0.0088 -0.9990
vn -0.0804 0.0000 -0.9968
vn 0.0000 0.0804 -0.9968
vn 0.0804 0.0000 -0.9968
vn 0.0000 -0.0804 -0.9968
usemtl Pylon
s off
f 11/1/1 24/2/1 23/3/1 12/4/1
f 15/5/2 20/6/2 19/7/2 16/8/2
f 8/9/3 27/10/3 26/11/3 9/12/3
f 10/13/4 25/14/4 24/15/4 11/16/4
f 14/17/5 21/18/5 20/19/5 15/20/5
f 4/21/6 30/22/6 29/23/6 5/24/6
f 12/25/7 23/26/7 22/27/7 13/28/7
f 1/29/8 6/30/8 32/31/8 2/32/8
f 16/33/9 19/34/9 18/35/9 17/36/9
f 9/37/10 26/38/10 25/39/10 10/40/10
f 17/41/11 18/42/11 6/43/11 1/44/11
f 13/45/12 22/46/12 21/47/12 14/48/12
f 5/49/13 29/50/13 28/51/13 7/52/13
f 2/53/14 32/54/14 31/55/14 3/56/14
f 7/57/15 28/58/15 27/59/15 8/60/15
f 3/61/16 31/62/16 30/63/16 4/64/16
f 5/65/17 37/66/17 33/67/17 4/68/17
f 13/69/17 44/70/17 43/71/17 12/72/17
f 2/73/17 35/74/17 36/75/17 1/76/17
f 17/77/17 48/78/17 47/79/17 16/80/17
f 10/81/17 41/82/17 40/83/17 9/84/17
f 1/76/17 36/75/17 48/78/17 17/77/17
f 14/85/17 45/86/17 44/70/17 13/69/17
f 7/87/17 38/88/17 37/66/17 5/65/17
f 3/89/17 34/90/17 35/74/17 2/73/17
f 11/91/17 42/92/17 41/82/17 10/81/17
f 15/93/17 46/94/17 45/86/17 14/85/17
f 8/95/17 39/96/17 38/88/17 7/87/17
f 4/68/17 33/67/17 34/90/17 3/89/17
f 12/72/17 43/71/17 42/92/17 11/91/17
f 16/80/17 47/79/17 46/94/17 15/93/17
f 9/84/17 40/83/17 39/96/17 8/95/17
f 45/86/18 67/97/18 66/98/18 44/70/18
f 38/88/19 52/99/19 61/100/19 37/66/19
f 46/94/20 68/101/20 67/97/20 45/86/20
f 39/96/21 62/102/21 52/99/21 38/88/21
f 47/79/22 54/103/22 68/101/22 46/94/22
f 40/83/23 63/104/23 62/102/23 39/96/23
f 48/78/24 55/105/24 54/103/24 47/79/24
f 41/82/25 64/106/25 63/104/25 40/83/25
f 37/66/26 61/100/26 49/107/26 33/67/26
f 36/75/27 60/108/27 55/105/27 48/78/27
f 42/92/28 65/109/28 64/106/28 41/82/28
f 33/67/29 49/107/29 50/110/29 34/90/29
f 43/71/30 53/111/30 65/109/30 42/92/30
f 34/90/31 50/110/31 51/112/31 35/74/31
f 44/70/32 66/98/32 53/111/32 43/71/32
f 35/74/33 51/112/33 60/108/33 36/75/33
f 72/113/34 56/114/34 57/115/34 71/116/34
f 71/116/35 57/115/35 58/117/35 70/118/35
f 70/118/36 58/117/36 59/119/36 69/120/36
f 69/120/37 59/119/37 56/114/37 72/113/37
f 49/107/17 69/120/17 50/110/17
f 61/100/17 69/120/17 49/107/17
f 52/99/17 70/118/17 61/100/17
f 62/102/17 70/118/17 52/99/17
f 61/100/17 70/118/17 69/120/17
f 64/106/17 70/118/17 63/104/17
f 63/104/17 70/118/17 62/102/17
f 65/109/17 71/116/17 64/106/17
f 53/111/17 71/116/17 65/109/17
f 64/106/17 71/116/17 70/118/17
f 50/110/17 69/120/17 51/112/17
f 51/112/17 69/120/17 60/108/17
f 60/108/17 72/113/17 55/105/17
f 55/105/17 72/113/17 54/103/17
f 60/108/17 69/120/17 72/113/17
f 54/103/17 72/113/17 68/101/17
f 68/101/17 72/113/17 67/97/17
f 66/98/17 71/116/17 53/111/17
f 67/97/17 71/116/17 66/98/17
f 72/113/17 71/116/17 67/97/17
f 20/121/17 76/122/17 75/123/17 19/124/17
f 28/125/17 84/126/17 83/127/17 27/128/17
f 32/129/17 88/130/17 87/131/17 31/132/17
f 25/133/17 81/134/17 80/135/17 24/136/17
f 21/137/17 77/138/17 76/122/17 20/121/17
f 29/139/17 85/140/17 84/126/17 28/125/17
f 6/141/17 73/142/17 88/130/17 32/129/17
f 26/143/17 82/144/17 81/134/17 25/133/17
f 22/145/17 78/146/17 77/138/17 21/137/17
f 30/147/17 86/148/17 85/140/17 29/139/17
f 18/149/17 74/150/17 73/142/17 6/141/17
f 23/151/17 79/152/17 78/146/17 22/145/17
f 19/124/17 75/123/17 74/150/17 18/149/17
f 27/128/17 83/127/17 82/144/17 26/143/17
f 31/132/17 87/131/17 86/148/17 30/147/17
f 24/136/17 80/135/17 79/152/17 23/151/17
f 82/153/38 98/154/38 97/155/38 81/156/38
f 75/157/39 91/158/39 90/159/39 74/160/39
f 83/161/40 99/162/40 98/163/40 82/164/40
f 76/165/41 92/166/41 91/167/41 75/168/41
f 84/169/42 100/170/42 99/171/42 83/172/42
f 77/173/43 93/174/43 92/175/43 76/176/43
f 85/177/44 101/178/44 100/179/44 84/180/44
f 78/181/45 94/182/45 93/183/45 77/184/45
f 86/185/46 102/186/46 101/187/46 85/188/46
f 79/189/47 95/190/47 94/191/47 78/192/47
f 87/193/48 103/194/48 102/195/48 86/196/48
f 80/197/49 96/198/49 95/199/49 79/200/49
f 88/201/50 104/202/50 103/203/50 87/204/50
f 81/205/51 97/206/51 96/207/51 80/208/51
f 74/209/52 90/210/52 89/211/52 73/212/52
f 73/213/53 89/214/53 104/215/53 88/216/53
f 100/217/54 58/117/54 99/218/54
f 98/219/55 99/218/55 58/117/55
f 100/217/56 101/220/56 58/117/56
f 97/221/57 98/219/57 58/117/57
f 102/222/58 59/119/58 101/220/58
f 102/222/59 103/223/59 59/119/59
f 103/223/60 104/224/60 59/119/60
f 104/224/61 89/225/61 59/119/61
f 90/226/62 56/114/62 89/225/62
f 90/226/63 91/227/63 56/114/63
f 91/227/64 92/228/64 56/114/64
f 92/228/65 93/229/65 56/114/65
f 94/230/66 57/115/66 93/229/66
f 94/230/67 95/231/67 57/115/67
f 95/231/68 96/232/68 57/115/68
f 96/232/69 97/221/69 57/115/69
f 58/117/70 57/115/70 97/221/70
f 56/114/71 93/229/71 57/115/71
f 59/119/72 89/225/72 56/114/72
f 58/117/73 101/220/73 59/119/73
