# Blender v2.90.0 OBJ File: 'objects.blend'
# www.blender.org
mtllib banana.mtl
o Banana_Cylinder.008
v 1.329993 -0.761033 0.259463
v 1.078251 -0.502832 0.259463
v 1.257370 -0.778981 0.205112
v 1.025355 -0.555729 0.205112
v 1.285109 -0.772125 0.117170
v 1.045559 -0.535524 0.117170
v 1.374876 -0.749941 0.117170
v 1.110944 -0.470140 0.117170
v 1.402615 -0.743085 0.205112
v 1.131148 -0.449935 0.205112
v 1.395216 -0.975989 0.218735
v 1.360196 -0.984644 0.192526
v 1.373572 -0.981338 0.150119
v 1.416860 -0.970640 0.150119
v 1.430236 -0.967334 0.192526
v 0.888026 -0.440915 0.217094
v 0.862576 -0.464226 0.192019
v 0.872297 -0.455322 0.151448
v 0.903755 -0.426508 0.151448
v 0.913476 -0.417604 0.192019
v 1.245034 -0.624657 0.259463
v 1.181472 -0.658660 0.205112
v 1.205750 -0.645672 0.117170
v 1.284316 -0.603642 0.117170
v 1.308595 -0.590655 0.205112
vn -0.3537 -0.5082 0.7852
vn -0.5355 -0.7949 -0.2854
vn 0.0000 0.0000 -1.0000
vn -0.1326 0.1363 -0.9818
vn 0.3724 0.4882 0.7893
vn 0.5891 0.7537 -0.2912
vn -0.8596 -0.4112 -0.3032
vn 0.2399 -0.9708 -0.0000
vn 0.5945 0.0281 0.8036
vn -0.5199 -0.3087 0.7965
vn 0.0349 -0.1411 -0.9894
vn 0.9421 0.1333 -0.3076
vn -0.6754 0.7374 0.0000
vn 0.1580 0.9545 -0.2530
vn -0.4494 -0.8430 -0.2956
vn 0.0611 0.6894 0.7218
vn -0.3389 -0.4892 0.8036
vn 0.8124 0.5019 -0.2969
vn 0.5141 0.3186 0.7964
vn -0.8084 -0.5086 -0.2965
vn -0.5128 -0.3214 0.7961
usemtl Material.009
s off
f 21//1 2//1 4//1 22//1
f 22//2 4//2 6//2 23//2
f 23//3 6//3 8//3 24//3
f 8//4 6//4 18//4 19//4
f 25//5 10//5 2//5 21//5
f 24//6 8//6 10//6 25//6
f 3//7 5//7 13//7 12//7
f 11//8 12//8 13//8 14//8 15//8
f 9//9 1//9 11//9 15//9
f 1//10 3//10 12//10 11//10
f 5//11 7//11 14//11 13//11
f 7//12 9//12 15//12 14//12
f 17//13 16//13 20//13 19//13 18//13
f 10//14 8//14 19//14 20//14
f 6//15 4//15 17//15 18//15
f 2//16 10//16 20//16 16//16
f 4//17 2//17 16//17 17//17
f 7//18 24//18 25//18 9//18
f 9//19 25//19 21//19 1//19
f 5//3 23//3 24//3 7//3
f 3//20 22//20 23//20 5//20
f 1//21 21//21 22//21 3//21
