# Blender v2.90.0 OBJ File: 'objects.blend'
# www.blender.org
mtllib cup_01.mtl
o Cup_Cylinder.004
v 0.458615 0.132182 0.048677
v 0.448728 0.181891 0.234122
v 0.493589 0.132182 0.048677
v 0.503476 0.181891 0.234122
v 0.525900 0.118798 0.048677
v 0.554058 0.160939 0.234122
v 0.550630 0.094069 0.048677
v 0.592771 0.122226 0.234122
v 0.564014 0.061757 0.048677
v 0.613722 0.071645 0.234122
v 0.564014 0.026784 0.048677
v 0.613722 0.016896 0.234122
v 0.550630 -0.005527 0.048677
v 0.592771 -0.033685 0.234122
v 0.525900 -0.030257 0.048677
v 0.554058 -0.072398 0.234122
v 0.493589 -0.043641 0.048677
v 0.503477 -0.093349 0.234122
v 0.458615 -0.043641 0.048677
v 0.448728 -0.093349 0.234122
v 0.426304 -0.030257 0.048677
v 0.398147 -0.072398 0.234122
v 0.401574 -0.005527 0.048677
v 0.359433 -0.033685 0.234122
v 0.388190 0.026784 0.048677
v 0.338482 0.016896 0.234122
v 0.388190 0.061757 0.048677
v 0.338482 0.071645 0.234122
v 0.401574 0.094069 0.048677
v 0.359434 0.122226 0.234122
v 0.426304 0.118799 0.048677
v 0.398147 0.160939 0.234122
v 0.454199 0.154387 0.078924
v 0.450350 0.173736 0.130657
v 0.448728 0.181891 0.182389
v 0.503476 0.181891 0.182389
v 0.501854 0.173736 0.130657
v 0.498006 0.154387 0.078924
v 0.554058 0.160939 0.182389
v 0.549438 0.154026 0.130657
v 0.538478 0.137622 0.078924
v 0.592771 0.122226 0.182389
v 0.585857 0.117607 0.130657
v 0.569454 0.106646 0.078924
v 0.613722 0.071645 0.182389
v 0.605567 0.070023 0.130657
v 0.586218 0.066174 0.078924
v 0.613722 0.016896 0.182389
v 0.605567 0.018518 0.130657
v 0.586218 0.022367 0.078924
v 0.592771 -0.033685 0.182389
v 0.585857 -0.029066 0.130657
v 0.569454 -0.018105 0.078924
v 0.554058 -0.072398 0.182389
v 0.549438 -0.065485 0.130657
v 0.538478 -0.049081 0.078924
v 0.503477 -0.093349 0.182389
v 0.501854 -0.085195 0.130657
v 0.498006 -0.065845 0.078924
v 0.448728 -0.093349 0.182389
v 0.450350 -0.085195 0.130657
v 0.454199 -0.065845 0.078924
v 0.398147 -0.072398 0.182389
v 0.402766 -0.065485 0.130657
v 0.413727 -0.049081 0.078924
v 0.359433 -0.033685 0.182389
v 0.366347 -0.029066 0.130657
v 0.382750 -0.018105 0.078924
v 0.338482 0.016896 0.182389
v 0.346637 0.018518 0.130657
v 0.365986 0.022367 0.078924
v 0.338482 0.071645 0.182389
v 0.346637 0.070023 0.130657
v 0.365986 0.066174 0.078924
v 0.359434 0.122226 0.182389
v 0.366347 0.117607 0.130657
v 0.382750 0.106646 0.078924
v 0.398147 0.160939 0.182389
v 0.402766 0.154026 0.130657
v 0.413726 0.137622 0.078924
v 0.457304 0.138773 0.048677
v 0.494900 0.138773 0.048677
v 0.505529 0.192208 0.234122
v 0.446675 0.192208 0.234122
v 0.446675 0.192208 0.182389
v 0.499648 0.162642 0.078924
v 0.529634 0.124386 0.048677
v 0.559902 0.169686 0.234122
v 0.543154 0.144621 0.078924
v 0.556218 0.097802 0.048677
v 0.601518 0.128071 0.234122
v 0.576453 0.111323 0.078924
v 0.570605 0.063068 0.048677
v 0.624040 0.073697 0.234122
v 0.594474 0.067816 0.078924
v 0.570605 0.025473 0.048677
v 0.624040 0.014844 0.234122
v 0.594474 0.020725 0.078924
v 0.556218 -0.009261 0.048677
v 0.601518 -0.039529 0.234122
v 0.576453 -0.022782 0.078924
v 0.529634 -0.035845 0.048677
v 0.559902 -0.081145 0.234122
v 0.543154 -0.056080 0.078924
v 0.494900 -0.050232 0.048677
v 0.505529 -0.103667 0.234122
v 0.499648 -0.074101 0.078924
v 0.457304 -0.050232 0.048677
v 0.446676 -0.103667 0.234122
v 0.452557 -0.074101 0.078924
v 0.422571 -0.035845 0.048677
v 0.392302 -0.081145 0.234122
v 0.409050 -0.056080 0.078924
v 0.395987 -0.009261 0.048677
v 0.350686 -0.039529 0.234122
v 0.375751 -0.022782 0.078924
v 0.381599 0.025473 0.048677
v 0.328164 0.014844 0.234122
v 0.357730 0.020725 0.078924
v 0.381599 0.063068 0.048677
v 0.328164 0.073697 0.234122
v 0.357730 0.067816 0.078924
v 0.395987 0.097802 0.048677
v 0.350686 0.128071 0.234122
v 0.375751 0.111323 0.078924
v 0.422571 0.124386 0.048677
v 0.392302 0.169686 0.234122
v 0.409050 0.144621 0.078924
v 0.452557 0.162642 0.078924
v 0.448419 0.183442 0.130657
v 0.505529 0.192208 0.182389
v 0.503785 0.183442 0.130657
v 0.559902 0.169686 0.182389
v 0.554936 0.162255 0.130657
v 0.601518 0.128071 0.182389
v 0.594086 0.123105 0.130657
v 0.624040 0.073697 0.182389
v 0.615274 0.071954 0.130657
v 0.624040 0.014844 0.182389
v 0.615274 0.016588 0.130657
v 0.601518 -0.039529 0.182389
v 0.594086 -0.034564 0.130657
v 0.559902 -0.081145 0.182389
v 0.554937 -0.073713 0.130657
v 0.505529 -0.103667 0.182389
v 0.503785 -0.094901 0.130657
v 0.446676 -0.103667 0.182389
v 0.448419 -0.094901 0.130657
v 0.392302 -0.081145 0.182389
v 0.397268 -0.073713 0.130657
v 0.350686 -0.039529 0.182389
v 0.358118 -0.034564 0.130657
v 0.328164 0.014844 0.182389
v 0.336931 0.016588 0.130657
v 0.328164 0.073697 0.182389
v 0.336931 0.071954 0.130657
v 0.350686 0.128071 0.182389
v 0.358118 0.123105 0.130657
v 0.392302 0.169686 0.182389
v 0.397268 0.162255 0.130657
v 0.459489 0.127792 0.044874
v 0.492715 0.127792 0.044874
v 0.523413 0.115076 0.044874
v 0.546908 0.091581 0.044874
v 0.559623 0.060884 0.044874
v 0.559623 0.027657 0.044874
v 0.546908 -0.003040 0.044874
v 0.523413 -0.026535 0.044874
v 0.492716 -0.039250 0.044874
v 0.459489 -0.039250 0.044874
v 0.428791 -0.026535 0.044874
v 0.405296 -0.003040 0.044874
v 0.392581 0.027657 0.044874
v 0.392581 0.060884 0.044874
v 0.405296 0.091581 0.044874
v 0.428791 0.115076 0.044874
v 0.458243 0.134053 0.044874
v 0.493961 0.134053 0.044874
v 0.526960 0.120385 0.044874
v 0.552216 0.095128 0.044874
v 0.565885 0.062130 0.044874
v 0.565885 0.026412 0.044874
v 0.552216 -0.006587 0.044874
v 0.526960 -0.031844 0.044874
v 0.493961 -0.045512 0.044874
v 0.458243 -0.045512 0.044874
v 0.425244 -0.031844 0.044874
v 0.399988 -0.006587 0.044874
v 0.386319 0.026412 0.044874
v 0.386319 0.062130 0.044874
v 0.399988 0.095128 0.044874
v 0.425244 0.120385 0.044874
v 0.476102 0.044271 0.043172
v 0.451177 0.169576 0.096168
v 0.449798 0.176509 0.113413
v 0.502406 0.176509 0.113413
v 0.501027 0.169576 0.096168
v 0.497274 0.150708 0.063801
v 0.454930 0.150708 0.063801
v 0.499648 0.180155 0.087056
v 0.452557 0.180155 0.087056
v 0.451177 0.184650 0.098228
v 0.501027 0.184650 0.098228
v 0.497274 0.175534 0.075901
v 0.454930 0.175534 0.075901
v 0.499648 0.200704 0.099943
v 0.452557 0.200704 0.099943
v 0.451177 0.205200 0.111115
v 0.501027 0.205200 0.111115
v 0.497274 0.196084 0.088788
v 0.454930 0.196084 0.088788
v 0.499648 0.238066 0.130537
v 0.452557 0.238066 0.130537
v 0.451177 0.230807 0.132573
v 0.501027 0.230807 0.132573
v 0.497274 0.244959 0.128380
v 0.454930 0.244959 0.128380
v 0.454930 0.270211 0.163210
v 0.497274 0.270211 0.163210
v 0.501027 0.256058 0.167402
v 0.451177 0.256058 0.167402
v 0.452557 0.263318 0.165367
v 0.499648 0.263318 0.165367
v 0.446675 0.192208 0.208256
v 0.505529 0.192208 0.208256
v 0.447547 0.187825 0.156523
v 0.504657 0.187825 0.156523
v 0.447547 0.193853 0.160082
v 0.446675 0.198236 0.184300
v 0.505529 0.198236 0.208519
v 0.505529 0.198236 0.184300
v 0.446675 0.198236 0.208519
v 0.504657 0.193853 0.160082
v 0.447547 0.205415 0.178891
v 0.446675 0.209798 0.194486
v 0.505529 0.209798 0.210080
v 0.505529 0.209798 0.194486
v 0.446675 0.209798 0.210080
v 0.504657 0.205415 0.178891
v 0.447547 0.231561 0.190109
v 0.447880 0.235945 0.202670
v 0.504325 0.235945 0.213020
v 0.504325 0.235945 0.202670
v 0.447880 0.235945 0.215231
v 0.504657 0.231561 0.192321
v 0.448168 0.246650 0.187240
v 0.448590 0.251033 0.200882
v 0.502779 0.251033 0.212123
v 0.503615 0.251033 0.200882
v 0.449425 0.251033 0.214525
v 0.504037 0.246650 0.189642
v 0.450064 0.254514 0.181428
v 0.450018 0.258897 0.195071
v 0.501258 0.265191 0.203490
v 0.502293 0.258897 0.195071
v 0.451053 0.265191 0.205892
v 0.502247 0.254514 0.183830
v 0.454930 0.274248 0.187483
v 0.497274 0.274248 0.187483
v 0.499978 0.265176 0.179307
v 0.452333 0.265176 0.179307
v 0.450421 0.257973 0.175581
v 0.501891 0.257973 0.177983
vn 0.0000 -1.0000 0.0000
vn -0.3827 -0.9239 0.0000
vn -0.7071 -0.7071 0.0000
vn -0.9239 -0.3827 0.0000
vn -1.0000 0.0000 0.0000
vn -0.9239 0.3827 0.0000
vn -0.7071 0.7071 0.0000
vn -0.3827 0.9239 0.0000
vn -0.0000 1.0000 0.0000
vn 0.3827 0.9239 0.0000
vn 0.7071 0.7071 0.0000
vn 0.9239 0.3827 0.0000
vn 1.0000 0.0000 0.0000
vn 0.9239 -0.3827 0.0000
vn 0.7071 -0.7071 0.0000
vn 0.3827 -0.9239 0.0000
vn 0.3085 -0.7448 0.5918
vn 0.3584 -0.8653 0.3503
vn 0.3780 -0.9126 0.1557
vn 0.5700 -0.5700 0.5918
vn 0.6623 -0.6623 0.3503
vn 0.6985 -0.6985 0.1557
vn 0.7448 -0.3085 0.5918
vn 0.8653 -0.3584 0.3503
vn 0.9126 -0.3780 0.1557
vn 0.8061 0.0000 0.5918
vn 0.9366 0.0000 0.3503
vn 0.9878 0.0000 0.1557
vn 0.7448 0.3085 0.5918
vn 0.8653 0.3584 0.3503
vn 0.9126 0.3780 0.1557
vn 0.5700 0.5700 0.5918
vn 0.6623 0.6623 0.3503
vn 0.6985 0.6985 0.1557
vn 0.3085 0.7448 0.5918
vn 0.3584 0.8653 0.3503
vn 0.3780 0.9126 0.1557
vn -0.0000 0.8061 0.5918
vn -0.0000 0.9366 0.3503
vn -0.0000 0.9878 0.1557
vn -0.3085 0.7448 0.5918
vn -0.3584 0.8653 0.3503
vn -0.3780 0.9126 0.1557
vn -0.5700 0.5700 0.5918
vn -0.6623 0.6623 0.3503
vn -0.6985 0.6985 0.1557
vn -0.7448 0.3085 0.5918
vn -0.8653 0.3584 0.3503
vn -0.9126 0.3780 0.1557
vn -0.8061 0.0000 0.5918
vn -0.9366 0.0000 0.3503
vn -0.9878 -0.0000 0.1557
vn -0.7448 -0.3085 0.5918
vn -0.8653 -0.3584 0.3503
vn -0.9126 -0.3780 0.1557
vn -0.5700 -0.5700 0.5918
vn -0.6623 -0.6623 0.3503
vn -0.6985 -0.6985 0.1557
vn -0.3085 -0.7448 0.5918
vn -0.3584 -0.8653 0.3503
vn -0.3780 -0.9126 0.1557
vn 0.0000 -0.8061 0.5918
vn 0.0000 -0.9366 0.3503
vn 0.0000 -0.9878 0.1557
vn -0.3004 0.7253 -0.6195
vn -0.3551 0.8572 -0.3730
vn -0.3773 0.9109 -0.1671
vn -0.5551 0.5551 -0.6195
vn -0.6561 0.6561 -0.3730
vn -0.6972 0.6972 -0.1671
vn -0.7253 0.3004 -0.6195
vn -0.8572 0.3551 -0.3730
vn -0.9109 0.3773 -0.1671
vn -0.7850 0.0000 -0.6195
vn -0.9278 0.0000 -0.3730
vn -0.9859 0.0000 -0.1671
vn -0.7253 -0.3004 -0.6195
vn -0.8572 -0.3551 -0.3730
vn -0.9109 -0.3773 -0.1671
vn -0.5551 -0.5551 -0.6195
vn -0.6561 -0.6561 -0.3730
vn -0.6972 -0.6972 -0.1671
vn -0.3004 -0.7253 -0.6195
vn -0.3551 -0.8572 -0.3730
vn -0.3773 -0.9109 -0.1671
vn 0.0000 -0.7850 -0.6195
vn 0.0000 -0.9278 -0.3730
vn 0.0000 -0.9859 -0.1671
vn 0.3004 -0.7253 -0.6195
vn 0.3551 -0.8572 -0.3730
vn 0.3773 -0.9109 -0.1671
vn 0.5551 -0.5551 -0.6195
vn 0.6561 -0.6561 -0.3730
vn 0.6972 -0.6972 -0.1671
vn 0.7253 -0.3004 -0.6195
vn 0.8572 -0.3551 -0.3730
vn 0.9109 -0.3773 -0.1671
vn 0.7850 0.0000 -0.6195
vn 0.9278 0.0000 -0.3730
vn 0.9859 0.0000 -0.1671
vn 0.7253 0.3004 -0.6195
vn 0.8572 0.3551 -0.3730
vn 0.9109 0.3773 -0.1671
vn 0.5551 0.5551 -0.6195
vn 0.6561 0.6561 -0.3730
vn 0.6972 0.6972 -0.1671
vn 0.3004 0.7253 -0.6195
vn 0.3551 0.8572 -0.3730
vn 0.3773 0.9109 -0.1671
vn 0.0000 0.9278 -0.3730
vn 0.0000 0.5084 -0.8611
vn 0.0000 0.0000 1.0000
vn 0.4629 0.4629 0.7559
vn -0.2505 -0.6049 0.7559
vn -0.5797 -0.2401 -0.7787
vn 0.4436 0.4436 -0.7787
vn 0.4629 -0.4629 0.7559
vn -0.6049 0.2505 0.7559
vn -0.2401 0.5796 -0.7787
vn 0.4436 -0.4436 -0.7787
vn 0.2505 0.6049 0.7559
vn -0.4436 -0.4436 -0.7787
vn 0.2401 0.5797 -0.7787
vn 0.0000 -0.6547 0.7559
vn 0.6049 -0.2505 0.7559
vn -0.6547 0.0000 0.7559
vn -0.4436 0.4436 -0.7787
vn 0.5796 -0.2401 -0.7787
vn 0.2401 -0.5797 -0.7787
vn -0.4629 0.4629 0.7559
vn 0.2505 -0.6049 0.7559
vn 0.5797 0.2401 -0.7787
vn -0.6274 0.0000 -0.7787
vn -0.4629 -0.4629 0.7559
vn 0.6049 0.2505 0.7559
vn 0.0000 -0.6274 -0.7787
vn -0.2505 0.6049 0.7559
vn 0.6274 0.0000 -0.7787
vn -0.5796 0.2401 -0.7787
vn 0.0000 0.6274 -0.7787
vn -0.6049 -0.2505 0.7559
vn 0.6547 0.0000 0.7559
vn -0.2401 -0.5797 -0.7787
vn -0.0000 0.6547 0.7559
vn -0.0134 0.0134 -0.9998
vn 0.0188 0.0078 0.9998
vn 0.0073 0.0175 -0.9998
vn -0.0073 0.0175 -0.9998
vn 0.0144 0.0144 0.9998
vn 0.0134 0.0134 -0.9998
vn -0.0188 0.0078 0.9998
vn 0.0175 0.0073 -0.9998
vn -0.0204 0.0000 0.9998
vn 0.0190 0.0000 -0.9998
vn 0.0175 -0.0073 -0.9998
vn 0.0134 -0.0134 -0.9998
vn -0.0188 -0.0078 0.9998
vn 0.0073 -0.0175 -0.9998
vn -0.0000 -0.0190 -0.9998
vn -0.0144 -0.0144 0.9998
vn 0.0078 0.0188 0.9998
vn -0.0073 -0.0175 -0.9998
vn -0.0078 -0.0188 0.9998
vn 0.0000 0.0204 0.9998
vn -0.0134 -0.0134 -0.9998
vn 0.0078 -0.0188 0.9998
vn -0.0175 -0.0073 -0.9998
vn 0.0144 -0.0144 0.9998
vn -0.0078 0.0188 0.9998
vn -0.0190 0.0000 -0.9998
vn 0.0188 -0.0078 0.9998
vn 0.0000 -0.0204 0.9998
vn -0.0144 0.0144 0.9998
vn -0.0175 0.0073 -0.9998
vn 0.0204 0.0000 0.9998
vn 0.0000 0.0190 -0.9998
vn 0.0000 0.7850 -0.6195
vn -0.9613 0.1187 -0.2485
vn -0.9933 0.0345 -0.1103
vn 0.9933 0.0345 -0.1103
vn 0.0000 0.4381 -0.8989
vn 0.9613 0.1187 -0.2485
vn -0.0000 -0.1354 0.9908
vn 0.9470 0.1707 -0.2722
vn -0.9815 0.1016 -0.1621
vn -0.9470 0.1707 -0.2722
vn 0.0000 0.5313 -0.8472
vn -0.0000 -0.5313 0.8472
vn 0.9815 0.1016 -0.1621
vn 0.0000 -0.6423 0.7665
vn 0.9743 0.1434 -0.1735
vn 0.9273 0.2363 -0.2904
vn -0.9743 0.1434 -0.1735
vn -0.9273 0.2363 -0.2904
vn 0.0000 0.6295 -0.7770
vn 0.0000 0.8096 -0.5870
vn 0.0000 -0.8096 0.5870
vn -0.9815 0.1550 -0.1123
vn -0.9448 0.2652 -0.1923
vn 0.9448 0.2652 -0.1923
vn 0.9815 0.1550 -0.1123
vn 0.0000 0.9859 -0.1671
vn 0.9953 0.0755 -0.0602
vn 0.9991 0.0171 -0.0378
vn -0.9991 0.0172 -0.0378
vn 0.0000 -0.0437 0.9990
vn -0.9990 0.0340 -0.0297
vn 0.0190 -0.1529 0.9881
vn 0.0000 0.8519 -0.5237
vn 0.0000 -0.1338 0.9910
vn -0.9953 0.0755 -0.0602
vn 0.9962 0.0779 0.0386
vn -0.9965 0.0771 0.0318
vn 0.9988 0.0367 -0.0332
vn -0.9989 0.0460 0.0000
vn 0.9989 0.0460 0.0000
vn 0.0175 0.4263 -0.9044
vn 0.9859 0.1609 -0.0462
vn -0.9834 0.1761 -0.0430
vn 0.0401 -0.1807 -0.9827
vn 0.0419 0.0530 0.9977
vn -0.9988 0.0461 0.0133
vn 0.9988 0.0464 0.0161
vn -0.9866 0.1595 0.0344
vn 0.9868 0.1562 0.0439
vn 0.0357 -0.5941 -0.8036
vn 0.0396 0.5201 0.8532
vn -0.0236 0.8604 0.5091
vn -0.0000 0.9865 -0.1641
vn 0.0121 0.8849 0.4657
vn -0.0047 -0.9798 0.2001
vn 0.9803 0.1944 -0.0336
vn 0.9727 0.2174 -0.0808
vn -0.9788 0.2024 -0.0298
vn -0.9696 0.2303 -0.0822
vn -0.9578 0.2836 -0.0463
vn -0.9474 0.3154 -0.0542
vn 0.9449 0.3223 -0.0579
vn 0.9564 0.2876 -0.0508
usemtl None
s off
f 35//1 36//1 4//1 2//1
f 36//2 39//2 6//2 4//2
f 39//3 42//3 8//3 6//3
f 42//4 45//4 10//4 8//4
f 45//5 48//5 12//5 10//5
f 48//6 51//6 14//6 12//6
f 51//7 54//7 16//7 14//7
f 54//8 57//8 18//8 16//8
f 57//9 60//9 20//9 18//9
f 60//10 63//10 22//10 20//10
f 63//11 66//11 24//11 22//11
f 66//12 69//12 26//12 24//12
f 69//13 72//13 28//13 26//13
f 72//14 75//14 30//14 28//14
f 75//15 78//15 32//15 30//15
f 78//16 35//16 2//16 32//16
f 31//17 1//17 33//17 80//17
f 80//18 33//18 34//18 79//18
f 79//19 34//19 35//19 78//19
f 29//20 31//20 80//20 77//20
f 77//21 80//21 79//21 76//21
f 76//22 79//22 78//22 75//22
f 27//23 29//23 77//23 74//23
f 74//24 77//24 76//24 73//24
f 73//25 76//25 75//25 72//25
f 25//26 27//26 74//26 71//26
f 71//27 74//27 73//27 70//27
f 70//28 73//28 72//28 69//28
f 23//29 25//29 71//29 68//29
f 68//30 71//30 70//30 67//30
f 67//31 70//31 69//31 66//31
f 21//32 23//32 68//32 65//32
f 65//33 68//33 67//33 64//33
f 64//34 67//34 66//34 63//34
f 19//35 21//35 65//35 62//35
f 62//36 65//36 64//36 61//36
f 61//37 64//37 63//37 60//37
f 17//38 19//38 62//38 59//38
f 59//39 62//39 61//39 58//39
f 58//40 61//40 60//40 57//40
f 15//41 17//41 59//41 56//41
f 56//42 59//42 58//42 55//42
f 55//43 58//43 57//43 54//43
f 13//44 15//44 56//44 53//44
f 53//45 56//45 55//45 52//45
f 52//46 55//46 54//46 51//46
f 11//47 13//47 53//47 50//47
f 50//48 53//48 52//48 49//48
f 49//49 52//49 51//49 48//49
f 9//50 11//50 50//50 47//50
f 47//51 50//51 49//51 46//51
f 46//52 49//52 48//52 45//52
f 7//53 9//53 47//53 44//53
f 44//54 47//54 46//54 43//54
f 43//55 46//55 45//55 42//55
f 5//56 7//56 44//56 41//56
f 41//57 44//57 43//57 40//57
f 40//58 43//58 42//58 39//58
f 3//59 5//59 41//59 38//59
f 38//60 41//60 40//60 37//60
f 37//61 40//61 39//61 36//61
f 1//62 3//62 38//62 33//62
f 33//63 38//63 37//63 34//63
f 34//64 37//64 36//64 35//64
f 224//9 84//9 83//9 225//9
f 131//10 225//10 83//10 88//10 133//10
f 133//11 88//11 91//11 135//11
f 135//12 91//12 94//12 137//12
f 137//13 94//13 97//13 139//13
f 139//14 97//14 100//14 141//14
f 141//15 100//15 103//15 143//15
f 143//16 103//16 106//16 145//16
f 145//1 106//1 109//1 147//1
f 147//2 109//2 112//2 149//2
f 149//3 112//3 115//3 151//3
f 151//4 115//4 118//4 153//4
f 153//5 118//5 121//5 155//5
f 155//6 121//6 124//6 157//6
f 157//7 124//7 127//7 159//7
f 159//8 127//8 84//8 224//8 85//8
f 126//65 128//65 129//65 199//65 81//65
f 128//66 160//66 130//66 195//66 194//66 129//66
f 160//67 159//67 85//67 226//67 130//67
f 123//68 125//68 128//68 126//68
f 125//69 158//69 160//69 128//69
f 158//70 157//70 159//70 160//70
f 120//71 122//71 125//71 123//71
f 122//72 156//72 158//72 125//72
f 156//73 155//73 157//73 158//73
f 117//74 119//74 122//74 120//74
f 119//75 154//75 156//75 122//75
f 154//76 153//76 155//76 156//76
f 114//77 116//77 119//77 117//77
f 116//78 152//78 154//78 119//78
f 152//79 151//79 153//79 154//79
f 111//80 113//80 116//80 114//80
f 113//81 150//81 152//81 116//81
f 150//82 149//82 151//82 152//82
f 108//83 110//83 113//83 111//83
f 110//84 148//84 150//84 113//84
f 148//85 147//85 149//85 150//85
f 105//86 107//86 110//86 108//86
f 107//87 146//87 148//87 110//87
f 146//88 145//88 147//88 148//88
f 102//89 104//89 107//89 105//89
f 104//90 144//90 146//90 107//90
f 144//91 143//91 145//91 146//91
f 99//92 101//92 104//92 102//92
f 101//93 142//93 144//93 104//93
f 142//94 141//94 143//94 144//94
f 96//95 98//95 101//95 99//95
f 98//96 140//96 142//96 101//96
f 140//97 139//97 141//97 142//97
f 93//98 95//98 98//98 96//98
f 95//99 138//99 140//99 98//99
f 138//100 137//100 139//100 140//100
f 90//101 92//101 95//101 93//101
f 92//102 136//102 138//102 95//102
f 136//103 135//103 137//103 138//103
f 87//104 89//104 92//104 90//104
f 89//105 134//105 136//105 92//105
f 134//106 133//106 135//106 136//106
f 82//107 198//107 86//107 89//107 87//107
f 86//108 197//108 196//108 132//108 134//108 89//108
f 132//109 227//109 131//109 133//109 134//109
f 195//110 130//110 132//110 196//110
f 227//111 226//111 228//111 233//111
f 18//112 20//112 109//112 106//112
f 23//113 21//113 171//113 172//113
f 5//114 3//114 162//114 163//114
f 114//115 117//115 189//115 188//115
f 10//112 12//112 97//112 94//112
f 28//112 30//112 124//112 121//112
f 2//112 4//112 83//112 84//112
f 87//116 90//116 180//116 179//116
f 20//112 22//112 112//112 109//112
f 31//117 29//117 175//117 176//117
f 13//118 11//118 166//118 167//118
f 12//112 14//112 100//112 97//112
f 30//112 32//112 127//112 124//112
f 126//119 81//119 177//119 192//119
f 99//120 102//120 184//120 183//120
f 4//112 6//112 88//112 83//112
f 22//112 24//112 115//112 112//112
f 21//121 19//121 170//121 171//121
f 111//122 114//122 188//122 187//122
f 14//112 16//112 103//112 100//112
f 32//112 2//112 84//112 127//112
f 82//123 87//123 179//123 178//123
f 3//124 1//124 161//124 162//124
f 6//112 8//112 91//112 88//112
f 24//112 26//112 118//112 115//112
f 29//125 27//125 174//125 175//125
f 16//112 18//112 106//112 103//112
f 11//126 9//126 165//126 166//126
f 123//127 126//127 192//127 191//127
f 8//112 10//112 94//112 91//112
f 26//112 28//112 121//112 118//112
f 96//128 99//128 183//128 182//128
f 102//129 105//129 185//129 184//129
f 15//130 13//130 167//130 168//130
f 1//131 31//131 176//131 161//131
f 90//132 93//132 181//132 180//132
f 117//133 120//133 190//133 189//133
f 7//134 5//134 163//134 164//134
f 25//135 23//135 172//135 173//135
f 105//136 108//136 186//136 185//136
f 17//137 15//137 168//137 169//137
f 93//138 96//138 182//138 181//138
f 120//139 123//139 191//139 190//139
f 81//140 82//140 178//140 177//140
f 9//141 7//141 164//141 165//141
f 27//142 25//142 173//142 174//142
f 108//143 111//143 187//143 186//143
f 19//144 17//144 169//144 170//144
f 191//145 192//145 193//145
f 173//146 172//146 193//146
f 178//147 179//147 193//147
f 192//148 177//148 193//148
f 172//149 171//149 193//149
f 179//150 180//150 193//150
f 167//151 166//151 193//151
f 180//152 181//152 193//152
f 166//153 165//153 193//153
f 181//154 182//154 193//154
f 182//155 183//155 193//155
f 183//156 184//156 193//156
f 165//157 164//157 193//157
f 184//158 185//158 193//158
f 185//159 186//159 193//159
f 164//160 163//160 193//160
f 171//161 170//161 193//161
f 186//162 187//162 193//162
f 163//163 162//163 193//163
f 170//164 169//164 193//164
f 187//165 188//165 193//165
f 161//166 176//166 193//166
f 188//167 189//167 193//167
f 176//168 175//168 193//168
f 169//169 168//169 193//169
f 189//170 190//170 193//170
f 175//171 174//171 193//171
f 162//172 161//172 193//172
f 168//173 167//173 193//173
f 190//174 191//174 193//174
f 174//175 173//175 193//175
f 177//176 178//176 193//176
f 194//110 195//110 196//110 197//110
f 81//177 199//177 198//177 82//177
f 199//178 129//178 201//178 205//178
f 129//179 194//179 202//179 201//179
f 197//180 86//180 200//180 203//180
f 198//181 199//181 205//181 204//181
f 86//182 198//182 204//182 200//182
f 194//183 197//183 203//183 202//183
f 200//184 204//184 210//184 206//184
f 201//185 202//185 208//185 207//185
f 205//186 201//186 207//186 211//186
f 204//187 205//187 211//187 210//187
f 202//188 203//188 209//188 208//188
f 203//189 200//189 206//189 209//189
f 208//190 209//190 215//190 214//190
f 209//191 206//191 212//191 215//191
f 206//192 210//192 216//192 212//192
f 207//193 208//193 214//193 213//193
f 211//194 207//194 213//194 217//194
f 210//195 211//195 217//195 216//195
f 216//196 217//196 218//196 219//196
f 214//197 215//197 220//197 221//197
f 213//198 214//198 221//198 222//198
f 217//199 213//199 222//199 218//199
f 212//200 216//200 219//200 223//200
f 215//201 212//201 223//201 220//201
f 85//5 224//5 232//5 229//5
f 130//202 226//202 227//202 132//202
f 229//5 232//5 238//5 235//5
f 231//203 233//203 239//203 237//203
f 225//13 131//13 231//13 230//13
f 131//204 227//204 233//204 231//204
f 226//205 85//205 229//205 228//205
f 224//206 225//206 230//206 232//206
f 234//207 235//207 241//207 240//207
f 238//208 236//208 242//208 244//208
f 230//13 231//13 237//13 236//13
f 233//209 228//209 234//209 239//209
f 232//210 230//210 236//210 238//210
f 228//211 229//211 235//211 234//211
f 242//212 243//212 249//212 248//212
f 241//213 244//213 250//213 247//213
f 237//214 239//214 245//214 243//214
f 235//215 238//215 244//215 241//215
f 236//216 237//216 243//216 242//216
f 239//217 234//217 240//217 245//217
f 249//218 251//218 257//218 255//218
f 246//219 247//219 253//219 252//219
f 245//220 240//220 246//220 251//220
f 244//221 242//221 248//221 250//221
f 240//222 241//222 247//222 246//222
f 243//223 245//223 251//223 249//223
f 247//224 250//224 256//224 253//224
f 248//225 249//225 255//225 254//225
f 251//226 246//226 252//226 257//226
f 250//227 248//227 254//227 256//227
f 252//228 257//228 263//228 262//228
f 219//229 218//229 258//229 259//229
f 254//230 259//230 258//230 256//230
f 220//231 263//231 262//231 221//231
f 260//232 255//232 257//232 263//232
f 223//233 260//233 263//233 220//233
f 261//234 262//234 252//234 253//234
f 221//235 262//235 261//235 222//235
f 261//236 253//236 256//236 258//236
f 218//237 222//237 261//237 258//237
f 223//238 219//238 259//238 260//238
f 255//239 260//239 259//239 254//239
