# Blender v2.90.0 OBJ File: 'objects.blend'
# www.blender.org
mtllib star.mtl
o Star_Icosphere.001
v -0.308844 -0.858162 0.210038
v -0.820767 -0.924583 0.105837
v -0.478987 -1.019113 0.105833
v 0.144338 -1.105253 0.105799
v -0.208530 -1.069718 0.105844
v -0.404000 -1.365779 0.105883
v 0.066381 -0.503453 0.105745
v -0.265738 -0.628097 0.105804
v -0.530171 -0.391743 0.105798
v -0.514368 -0.745954 0.105810
v -0.076598 -0.827930 0.105771
v -0.308844 -0.858162 0.001587
vt 0.851161 0.000589
vt 0.812989 0.000589
vt 0.851161 0.000589
vt 0.912873 0.073130
vt 0.901103 0.036860
vt 0.912873 0.073130
vt 0.801217 0.036859
vt 0.789445 0.073128
vt 0.801217 0.036859
vt 0.851108 0.118004
vt 0.881991 0.095567
vt 0.851108 0.118004
vt 0.789445 0.073128
vt 0.820276 0.095566
vt 0.889334 0.000589
vt 0.889334 0.000589
vt 0.901103 0.036860
vt 0.812989 0.000589
vt 0.881991 0.095567
vt 0.820276 0.095566
vt 0.851161 0.000589
vt 0.912873 0.073130
vt 0.801217 0.036859
vt 0.851108 0.118004
vt 0.789445 0.073128
vt 0.889334 0.000589
vt 0.901103 0.036860
vt 0.812989 0.000589
vt 0.881991 0.095567
vt 0.820276 0.095566
vn -0.2323 0.3986 0.8872
vn 0.3852 -0.2542 0.8871
vn 0.3077 0.3442 0.8870
vn 0.3609 0.2876 0.8872
vn -0.1621 0.4323 0.8871
vn -0.1229 -0.4445 0.8873
vn -0.4511 -0.0975 0.8871
vn -0.4611 -0.0205 0.8871
vn -0.0461 -0.4589 0.8873
vn 0.4225 -0.1861 0.8871
vn -0.2324 0.3985 -0.8873
vn 0.3852 -0.2545 -0.8870
vn 0.3077 0.3442 -0.8871
vn 0.3607 0.2872 -0.8874
vn -0.1624 0.4322 -0.8870
vn -0.1230 -0.4446 -0.8872
vn -0.4511 -0.0977 -0.8871
vn -0.4611 -0.0206 -0.8871
vn -0.0464 -0.4592 -0.8871
vn 0.4222 -0.1861 -0.8872
usemtl Star
s off
f 1/1/1 10/2/1 2/3/1
f 1/4/2 6/5/2 5/6/2
f 1/7/3 8/8/3 9/9/3
f 1/10/4 4/11/4 11/12/4
f 1/13/5 7/14/5 8/8/5
f 1/15/6 2/3/6 3/16/6
f 1/17/7 3/16/7 6/5/7
f 1/18/8 9/9/8 10/2/8
f 1/19/9 5/6/9 4/11/9
f 1/20/10 11/12/10 7/14/10
f 2/3/11 10/2/11 12/21/11
f 5/6/12 6/5/12 12/22/12
f 9/9/13 8/8/13 12/23/13
f 11/12/14 4/11/14 12/24/14
f 8/8/15 7/14/15 12/25/15
f 3/16/16 2/3/16 12/26/16
f 6/5/17 3/16/17 12/27/17
f 10/2/18 9/9/18 12/28/18
f 4/11/19 5/6/19 12/29/19
f 7/14/20 11/12/20 12/30/20
